<svg width="340" height="27" viewBox="0 0 340 27" fill="none" xmlns="http://www.w3.org/2000/svg">
<g clip-path="url(#clip0)">
<rect width="340" height="27" fill="#434343"/>
<rect x="28" width="1" height="27" fill="#353535"/>
<path d="M8.41839 17.389C8.41839 17.337 8.41839 17.259 8.41839 17.155C8.41839 17.0423 8.44005 16.921 8.48339 16.791C8.89939 16.7477 9.20705 16.6783 9.40639 16.583C9.60572 16.4877 9.70539 16.3187 9.70539 16.076V10.525L8.48339 10.72C8.47472 10.668 8.47039 10.603 8.47039 10.525C8.47039 10.4383 8.48772 10.356 8.52239 10.278C9.46705 9.69733 10.2817 9.24233 10.9664 8.913L11.3044 9.056V16.531C11.6337 16.6783 12.0107 16.765 12.4354 16.791C12.4354 17.0423 12.4181 17.2417 12.3834 17.389H8.41839ZM20.6079 16.791C20.6426 16.921 20.6599 17.038 20.6599 17.142C20.6599 17.2373 20.6556 17.3197 20.6469 17.389H17.4879C17.4533 17.2937 17.4359 17.0943 17.4359 16.791C17.7219 16.7563 17.8996 16.6957 17.9689 16.609C18.0383 16.5223 18.0253 16.4227 17.9299 16.31L16.3959 14.113L14.5629 16.687C14.7709 16.739 15.0136 16.7737 15.2909 16.791C15.3169 16.9297 15.3299 17.0467 15.3299 17.142C15.3299 17.2373 15.3256 17.3197 15.3169 17.389H12.9509C12.9509 17.3457 12.9509 17.272 12.9509 17.168C12.9509 17.0553 12.9813 16.9297 13.0419 16.791C13.4233 16.7823 13.7656 16.583 14.0689 16.193L15.9799 13.502L13.4189 9.823C13.2109 9.76233 13.0376 9.72767 12.8989 9.719C12.8643 9.57167 12.8469 9.45467 12.8469 9.368C12.8469 9.27267 12.8556 9.19467 12.8729 9.134H16.0449C16.0796 9.28133 16.0969 9.47633 16.0969 9.719C15.7156 9.771 15.5249 9.87067 15.5249 10.018C15.5249 10.0787 15.5509 10.1437 15.6029 10.213L17.1369 12.423L18.9959 9.849C18.7619 9.78833 18.5236 9.74933 18.2809 9.732C18.2549 9.602 18.2419 9.48933 18.2419 9.394C18.2419 9.29 18.2463 9.20333 18.2549 9.134H20.6339C20.6339 9.368 20.5993 9.56733 20.5299 9.732C20.1226 9.74933 19.7846 9.94867 19.5159 10.33L17.5529 13.021L20.0879 16.687C20.2266 16.739 20.3999 16.7737 20.6079 16.791Z" fill="#A3A3A3"/>
<path d="M327.168 16.68C327.616 16.68 327.941 16.5787 328.144 16.376C328.357 16.1627 328.517 15.7733 328.624 15.208C328.784 15.208 328.939 15.2453 329.088 15.32C329.088 16.472 328.965 17.448 328.72 18.248H322.864C322.757 17.6827 322.704 17.24 322.704 16.92C324.389 15.128 325.488 13.8533 326 13.096C326.523 12.3387 326.784 11.5973 326.784 10.872C326.784 10.4133 326.651 10.0347 326.384 9.736C326.128 9.42667 325.797 9.272 325.392 9.272C324.56 9.272 324.021 9.77867 323.776 10.792C323.712 10.8027 323.627 10.808 323.52 10.808C323.424 10.808 323.301 10.7973 323.152 10.776C323.152 10.584 323.152 10.2907 323.152 9.896C323.152 9.50133 323.179 9.10667 323.232 8.712C324.043 8.15733 324.923 7.88 325.872 7.88C326.821 7.88 327.563 8.14667 328.096 8.68C328.64 9.20267 328.912 9.864 328.912 10.664C328.912 11.08 328.853 11.416 328.736 11.672C328.619 11.9173 328.523 12.1147 328.448 12.264C328.373 12.4027 328.24 12.5893 328.048 12.824C327.856 13.048 327.696 13.2347 327.568 13.384C327.44 13.5333 327.221 13.7627 326.912 14.072C326.603 14.3707 326.352 14.6107 326.16 14.792C325.488 15.4107 324.816 16.04 324.144 16.68H327.168Z" fill="#A3A3A3"/>
<path d="M41.224 10.08C42.08 10.08 42.756 10.3 43.252 10.74C43.756 11.18 44.008 11.784 44.008 12.552C44.008 13.32 43.756 13.924 43.252 14.364C42.756 14.796 42.08 15.012 41.224 15.012H39.46V18H38.176V10.08H41.224ZM41.02 13.92C41.58 13.92 41.996 13.808 42.268 13.584C42.54 13.352 42.676 13.008 42.676 12.552C42.676 11.632 42.124 11.172 41.02 11.172H39.46V13.92H41.02ZM48.6154 11.88C48.8954 11.88 49.1154 11.92 49.2754 12L49.0714 13.176C48.8874 13.072 48.6354 13.02 48.3154 13.02C48.0594 13.02 47.8154 13.088 47.5834 13.224C47.3594 13.36 47.1714 13.564 47.0194 13.836C46.8754 14.108 46.8034 14.436 46.8034 14.82V18H45.5194V12H46.6114L46.7194 13.08C47.0554 12.28 47.6874 11.88 48.6154 11.88ZM52.9758 11.88C53.9118 11.88 54.6438 12.156 55.1718 12.708C55.6998 13.26 55.9638 14.024 55.9638 15C55.9638 15.976 55.6998 16.74 55.1718 17.292C54.6438 17.844 53.9118 18.12 52.9758 18.12C52.0398 18.12 51.3078 17.844 50.7798 17.292C50.2518 16.74 49.9878 15.976 49.9878 15C49.9878 14.024 50.2518 13.26 50.7798 12.708C51.3078 12.156 52.0398 11.88 52.9758 11.88ZM52.9758 12.888C52.4318 12.888 52.0118 13.072 51.7158 13.44C51.4278 13.8 51.2838 14.32 51.2838 15C51.2838 15.68 51.4278 16.204 51.7158 16.572C52.0118 16.932 52.4318 17.112 52.9758 17.112C53.5198 17.112 53.9398 16.928 54.2358 16.56C54.5318 16.192 54.6798 15.672 54.6798 15C54.6798 14.328 54.5318 13.808 54.2358 13.44C53.9398 13.072 53.5198 12.888 52.9758 12.888ZM60.8412 11.88C61.6652 11.88 62.3132 12.16 62.7852 12.72C63.2572 13.272 63.4932 14.036 63.4932 15.012C63.4932 15.988 63.2572 16.752 62.7852 17.304C62.3132 17.848 61.6652 18.12 60.8412 18.12C60.3692 18.12 59.9532 18.008 59.5932 17.784C59.2412 17.56 58.9772 17.26 58.8012 16.884L58.7412 18H57.6132V9.3H58.8972V12.96C59.0812 12.624 59.3412 12.36 59.6772 12.168C60.0212 11.976 60.4092 11.88 60.8412 11.88ZM60.5532 17.088C61.0732 17.088 61.4772 16.904 61.7652 16.536C62.0612 16.168 62.2092 15.656 62.2092 15C62.2092 14.344 62.0612 13.836 61.7652 13.476C61.4772 13.108 61.0732 12.924 60.5532 12.924C60.0652 12.924 59.6732 13.088 59.3772 13.416C59.0892 13.744 58.9292 14.196 58.8972 14.772V15.228C58.9292 15.812 59.0892 16.268 59.3772 16.596C59.6732 16.924 60.0652 17.088 60.5532 17.088ZM70.3323 17.16C70.5083 17.16 70.6563 17.144 70.7763 17.112L70.6923 17.976C70.4763 18.072 70.2283 18.12 69.9483 18.12C69.6043 18.12 69.3283 18.052 69.1203 17.916C68.9203 17.78 68.7883 17.552 68.7243 17.232C68.5403 17.512 68.2683 17.732 67.9083 17.892C67.5483 18.044 67.1443 18.12 66.6963 18.12C66.1123 18.12 65.6403 17.984 65.2803 17.712C64.9203 17.44 64.7403 17.052 64.7403 16.548C64.7403 16.076 64.9363 15.68 65.3283 15.36C65.7203 15.032 66.3043 14.8 67.0803 14.664L68.6043 14.4V14.076C68.6043 13.708 68.4963 13.42 68.2803 13.212C68.0643 12.996 67.7643 12.888 67.3803 12.888C66.5883 12.888 66.0723 13.248 65.8323 13.968L64.8363 13.44C64.9803 12.96 65.2723 12.58 65.7123 12.3C66.1603 12.02 66.7083 11.88 67.3563 11.88C68.1323 11.88 68.7483 12.06 69.2043 12.42C69.6603 12.78 69.8883 13.308 69.8883 14.004V16.716C69.8883 16.868 69.9203 16.98 69.9843 17.052C70.0563 17.124 70.1723 17.16 70.3323 17.16ZM66.9723 17.148C67.4043 17.148 67.7843 17.044 68.1123 16.836C68.4403 16.628 68.6043 16.352 68.6043 16.008V15.288L67.2963 15.552C66.8803 15.632 66.5723 15.744 66.3723 15.888C66.1723 16.032 66.0723 16.224 66.0723 16.464C66.0723 16.688 66.1483 16.86 66.3003 16.98C66.4603 17.092 66.6843 17.148 66.9723 17.148ZM75.2201 11.88C76.0441 11.88 76.6921 12.16 77.1641 12.72C77.6361 13.272 77.8721 14.036 77.8721 15.012C77.8721 15.988 77.6361 16.752 77.1641 17.304C76.6921 17.848 76.0441 18.12 75.2201 18.12C74.7481 18.12 74.3321 18.008 73.9721 17.784C73.6201 17.56 73.3561 17.26 73.1801 16.884L73.1201 18H71.9921V9.3H73.2761V12.96C73.4601 12.624 73.7201 12.36 74.0561 12.168C74.4001 11.976 74.7881 11.88 75.2201 11.88ZM74.9321 17.088C75.4521 17.088 75.8561 16.904 76.1441 16.536C76.4401 16.168 76.5881 15.656 76.5881 15C76.5881 14.344 76.4401 13.836 76.1441 13.476C75.8561 13.108 75.4521 12.924 74.9321 12.924C74.4441 12.924 74.0521 13.088 73.7561 13.416C73.4681 13.744 73.3081 14.196 73.2761 14.772V15.228C73.3081 15.812 73.4681 16.268 73.7561 16.596C74.0521 16.924 74.4441 17.088 74.9321 17.088ZM80.787 16.248C80.787 16.544 80.831 16.752 80.919 16.872C81.007 16.984 81.171 17.04 81.411 17.04C81.563 17.04 81.691 17.032 81.795 17.016C81.907 16.992 82.043 16.948 82.203 16.884L82.059 17.916C81.787 18.052 81.455 18.12 81.063 18.12C80.527 18.12 80.131 17.984 79.875 17.712C79.627 17.44 79.503 17.012 79.503 16.428V9.3H80.787V16.248ZM85.768 18.708C85.504 19.396 85.204 19.88 84.868 20.16C84.532 20.44 84.092 20.58 83.548 20.58C83.236 20.58 82.964 20.54 82.732 20.46C82.508 20.388 82.308 20.268 82.132 20.1L82.504 19.116C82.744 19.404 83.072 19.548 83.488 19.548C83.728 19.548 83.928 19.484 84.088 19.356C84.256 19.236 84.404 19.012 84.532 18.684L84.796 18.036L84.172 16.548L82.3 12H83.74L85.06 15.768L85.408 16.896L85.816 15.66L87.064 12H88.396L85.768 18.708ZM98.9882 16.896V18H93.3362V10.08H94.6202V16.896H98.9882ZM102.839 11.88C103.775 11.88 104.507 12.156 105.035 12.708C105.563 13.26 105.827 14.024 105.827 15C105.827 15.976 105.563 16.74 105.035 17.292C104.507 17.844 103.775 18.12 102.839 18.12C101.903 18.12 101.171 17.844 100.643 17.292C100.115 16.74 99.8511 15.976 99.8511 15C99.8511 14.024 100.115 13.26 100.643 12.708C101.171 12.156 101.903 11.88 102.839 11.88ZM102.839 12.888C102.295 12.888 101.875 13.072 101.579 13.44C101.291 13.8 101.147 14.32 101.147 15C101.147 15.68 101.291 16.204 101.579 16.572C101.875 16.932 102.295 17.112 102.839 17.112C103.383 17.112 103.803 16.928 104.099 16.56C104.395 16.192 104.543 15.672 104.543 15C104.543 14.328 104.395 13.808 104.099 13.44C103.803 13.072 103.383 12.888 102.839 12.888ZM110.704 11.88C111.368 11.88 111.908 12.072 112.324 12.456C112.748 12.84 112.96 13.392 112.96 14.112V18H111.676V14.52C111.676 13.464 111.248 12.936 110.392 12.936C109.944 12.936 109.56 13.092 109.24 13.404C108.92 13.708 108.76 14.18 108.76 14.82V18H107.476V12H108.616L108.676 12.996C108.876 12.62 109.152 12.34 109.504 12.156C109.856 11.972 110.256 11.88 110.704 11.88ZM118.398 17.064C119.006 17.064 119.478 17.2 119.814 17.472C120.15 17.744 120.318 18.12 120.318 18.6C120.318 19.008 120.182 19.36 119.91 19.656C119.646 19.952 119.278 20.18 118.806 20.34C118.342 20.5 117.818 20.58 117.234 20.58C116.282 20.58 115.566 20.44 115.086 20.16C114.614 19.88 114.378 19.508 114.378 19.044C114.378 18.772 114.47 18.532 114.654 18.324C114.846 18.124 115.11 17.98 115.446 17.892C115.19 17.772 114.986 17.62 114.834 17.436C114.682 17.244 114.606 17.016 114.606 16.752C114.606 16.168 114.918 15.768 115.542 15.552C115.238 15.376 115.006 15.148 114.846 14.868C114.694 14.588 114.618 14.268 114.618 13.908C114.618 13.508 114.726 13.156 114.942 12.852C115.158 12.54 115.462 12.3 115.854 12.132C116.254 11.964 116.71 11.88 117.222 11.88C117.662 11.88 118.066 11.944 118.434 12.072C118.546 11.632 118.746 11.3 119.034 11.076C119.33 10.844 119.718 10.732 120.198 10.74L120.414 11.736C120.03 11.728 119.718 11.776 119.478 11.88C119.246 11.984 119.086 12.14 118.998 12.348C119.262 12.532 119.466 12.756 119.61 13.02C119.754 13.284 119.826 13.58 119.826 13.908C119.826 14.524 119.586 15.016 119.106 15.384C118.634 15.752 118.006 15.936 117.222 15.936C116.854 15.936 116.522 15.9 116.226 15.828C116.026 15.876 115.878 15.956 115.782 16.068C115.694 16.172 115.65 16.312 115.65 16.488C115.65 16.672 115.714 16.816 115.842 16.92C115.978 17.016 116.162 17.064 116.394 17.064H118.398ZM117.222 12.78C116.854 12.78 116.546 12.888 116.298 13.104C116.05 13.312 115.926 13.58 115.926 13.908C115.926 14.244 116.05 14.52 116.298 14.736C116.546 14.944 116.854 15.048 117.222 15.048C117.598 15.048 117.906 14.944 118.146 14.736C118.394 14.52 118.518 14.244 118.518 13.908C118.518 13.572 118.394 13.3 118.146 13.092C117.906 12.884 117.598 12.78 117.222 12.78ZM117.354 19.62C117.938 19.62 118.394 19.536 118.722 19.368C119.05 19.2 119.214 18.992 119.214 18.744C119.214 18.544 119.134 18.392 118.974 18.288C118.814 18.184 118.546 18.132 118.17 18.132H116.55C116.19 18.132 115.918 18.188 115.734 18.3C115.558 18.412 115.47 18.568 115.47 18.768C115.47 19.04 115.626 19.248 115.938 19.392C116.258 19.544 116.73 19.62 117.354 19.62ZM132.197 15.9C131.957 16.612 131.545 17.16 130.961 17.544C130.385 17.928 129.705 18.12 128.921 18.12C128.161 18.12 127.501 17.956 126.941 17.628C126.381 17.3 125.949 16.828 125.645 16.212C125.341 15.596 125.189 14.872 125.189 14.04C125.189 13.208 125.341 12.484 125.645 11.868C125.949 11.252 126.381 10.78 126.941 10.452C127.501 10.124 128.157 9.96 128.909 9.96C129.701 9.96 130.365 10.124 130.901 10.452C131.445 10.78 131.837 11.264 132.077 11.904L130.865 12.444C130.705 11.972 130.473 11.628 130.169 11.412C129.865 11.188 129.469 11.076 128.981 11.076C128.237 11.076 127.641 11.34 127.193 11.868C126.753 12.388 126.533 13.112 126.533 14.04C126.533 14.976 126.745 15.704 127.169 16.224C127.593 16.744 128.181 17.004 128.933 17.004C129.445 17.004 129.873 16.876 130.217 16.62C130.569 16.364 130.821 15.988 130.973 15.492L132.197 15.9ZM138.84 17.16C139.016 17.16 139.164 17.144 139.284 17.112L139.2 17.976C138.984 18.072 138.736 18.12 138.456 18.12C138.112 18.12 137.836 18.052 137.628 17.916C137.428 17.78 137.296 17.552 137.232 17.232C137.048 17.512 136.776 17.732 136.416 17.892C136.056 18.044 135.652 18.12 135.204 18.12C134.62 18.12 134.148 17.984 133.788 17.712C133.428 17.44 133.248 17.052 133.248 16.548C133.248 16.076 133.444 15.68 133.836 15.36C134.228 15.032 134.812 14.8 135.588 14.664L137.112 14.4V14.076C137.112 13.708 137.004 13.42 136.788 13.212C136.572 12.996 136.272 12.888 135.888 12.888C135.096 12.888 134.58 13.248 134.34 13.968L133.344 13.44C133.488 12.96 133.78 12.58 134.22 12.3C134.668 12.02 135.216 11.88 135.864 11.88C136.64 11.88 137.256 12.06 137.712 12.42C138.168 12.78 138.396 13.308 138.396 14.004V16.716C138.396 16.868 138.428 16.98 138.492 17.052C138.564 17.124 138.68 17.16 138.84 17.16ZM135.48 17.148C135.912 17.148 136.292 17.044 136.62 16.836C136.948 16.628 137.112 16.352 137.112 16.008V15.288L135.804 15.552C135.388 15.632 135.08 15.744 134.88 15.888C134.68 16.032 134.58 16.224 134.58 16.464C134.58 16.688 134.656 16.86 134.808 16.98C134.968 17.092 135.192 17.148 135.48 17.148ZM143.596 11.88C143.876 11.88 144.096 11.92 144.256 12L144.052 13.176C143.868 13.072 143.616 13.02 143.296 13.02C143.04 13.02 142.796 13.088 142.564 13.224C142.34 13.36 142.152 13.564 142 13.836C141.856 14.108 141.784 14.436 141.784 14.82V18H140.5V12H141.592L141.7 13.08C142.036 12.28 142.668 11.88 143.596 11.88ZM150.872 9.3V18H149.744L149.672 16.932C149.496 17.292 149.228 17.58 148.868 17.796C148.516 18.012 148.112 18.12 147.656 18.12C146.832 18.12 146.18 17.848 145.7 17.304C145.228 16.752 144.992 15.988 144.992 15.012C144.992 14.036 145.228 13.272 145.7 12.72C146.18 12.16 146.832 11.88 147.656 11.88C148.096 11.88 148.484 11.98 148.82 12.18C149.156 12.372 149.412 12.636 149.588 12.972V9.3H150.872ZM147.944 17.088C148.448 17.088 148.848 16.908 149.144 16.548C149.44 16.188 149.588 15.696 149.588 15.072V14.928C149.588 14.304 149.44 13.816 149.144 13.464C148.848 13.104 148.448 12.924 147.944 12.924C147.424 12.924 147.016 13.108 146.72 13.476C146.432 13.836 146.288 14.344 146.288 15C146.288 15.656 146.432 16.168 146.72 16.536C147.016 16.904 147.424 17.088 147.944 17.088ZM163.438 18H161.914L158.854 13.008L158.086 11.544H158.074L158.122 12.888V18H156.946V10.08H158.458L161.506 15.06L162.286 16.536H162.298L162.25 15.192V10.08H163.438V18ZM170.727 17.16C170.903 17.16 171.051 17.144 171.171 17.112L171.087 17.976C170.871 18.072 170.623 18.12 170.343 18.12C169.999 18.12 169.723 18.052 169.515 17.916C169.315 17.78 169.183 17.552 169.119 17.232C168.935 17.512 168.663 17.732 168.303 17.892C167.943 18.044 167.539 18.12 167.091 18.12C166.507 18.12 166.035 17.984 165.675 17.712C165.315 17.44 165.135 17.052 165.135 16.548C165.135 16.076 165.331 15.68 165.723 15.36C166.115 15.032 166.699 14.8 167.475 14.664L168.999 14.4V14.076C168.999 13.708 168.891 13.42 168.675 13.212C168.459 12.996 168.159 12.888 167.775 12.888C166.983 12.888 166.467 13.248 166.227 13.968L165.231 13.44C165.375 12.96 165.667 12.58 166.107 12.3C166.555 12.02 167.103 11.88 167.751 11.88C168.527 11.88 169.143 12.06 169.599 12.42C170.055 12.78 170.283 13.308 170.283 14.004V16.716C170.283 16.868 170.315 16.98 170.379 17.052C170.451 17.124 170.567 17.16 170.727 17.16ZM167.367 17.148C167.799 17.148 168.179 17.044 168.507 16.836C168.835 16.628 168.999 16.352 168.999 16.008V15.288L167.691 15.552C167.275 15.632 166.967 15.744 166.767 15.888C166.567 16.032 166.467 16.224 166.467 16.464C166.467 16.688 166.543 16.86 166.695 16.98C166.855 17.092 167.079 17.148 167.367 17.148ZM179.623 11.88C180.023 11.88 180.391 11.964 180.727 12.132C181.063 12.292 181.331 12.54 181.531 12.876C181.731 13.212 181.831 13.624 181.831 14.112V18H180.547V14.316C180.547 13.844 180.435 13.496 180.211 13.272C179.987 13.048 179.687 12.936 179.311 12.936C178.871 12.936 178.499 13.096 178.195 13.416C177.899 13.736 177.751 14.176 177.751 14.736V18H176.467V14.316C176.467 13.844 176.355 13.496 176.131 13.272C175.907 13.048 175.607 12.936 175.231 12.936C174.975 12.936 174.727 13.004 174.487 13.14C174.247 13.268 174.051 13.472 173.899 13.752C173.747 14.032 173.671 14.384 173.671 14.808V18H172.387V12H173.527L173.587 12.996C173.787 12.628 174.059 12.352 174.403 12.168C174.747 11.976 175.123 11.88 175.531 11.88C175.979 11.88 176.383 11.984 176.743 12.192C177.111 12.392 177.383 12.688 177.559 13.08C177.743 12.688 178.023 12.392 178.399 12.192C178.783 11.984 179.191 11.88 179.623 11.88ZM189.141 14.82C189.141 15.052 189.125 15.272 189.093 15.48H184.701C184.773 16.008 184.961 16.412 185.265 16.692C185.569 16.964 185.961 17.1 186.441 17.1C186.833 17.1 187.157 17.032 187.413 16.896C187.677 16.752 187.857 16.548 187.953 16.284L189.021 16.728C188.573 17.656 187.713 18.12 186.441 18.12C185.497 18.12 184.757 17.844 184.221 17.292C183.693 16.74 183.429 15.976 183.429 15C183.429 14.016 183.685 13.252 184.197 12.708C184.709 12.156 185.429 11.88 186.357 11.88C187.237 11.88 187.921 12.148 188.409 12.684C188.897 13.22 189.141 13.932 189.141 14.82ZM186.357 12.9C185.893 12.9 185.517 13.036 185.229 13.308C184.949 13.58 184.773 13.976 184.701 14.496H187.941C187.877 13.992 187.705 13.6 187.425 13.32C187.153 13.04 186.797 12.9 186.357 12.9Z" fill="#A3A3A3"/>
<circle cx="325.5" cy="13.5" r="10" stroke="#383838"/>
<circle cx="302.5" cy="13.5" r="10" stroke="#383838"/>
<circle cx="279.5" cy="13.5" r="10" stroke="#383838"/>
<circle cx="256.5" cy="13.5" r="10" stroke="#383838"/>
<circle cx="233.5" cy="13.5" r="10" stroke="#383838"/>
</g>
  <defs>
    <clipPath id="clip0">
      <rect width="340" height="27" fill="white"/>
    </clipPath>
  </defs>
</svg>
